<svg width="24" height="24" viewBox="0 0 24 24" fill="none" xmlns="http://www.w3.org/2000/svg">
<path id="youtube" d="M23.3925 4.02546C23.2915 3.52275 23.0981 3.0578 22.8282 2.66896C22.5582 2.28012 22.2195 1.97854 21.84 1.7891C18.1671 -0.0163585 12.3214 5.18718e-06 12 5.18718e-06C11.6786 5.18718e-06 5.83286 -0.0163585 2.16 1.7891C1.78046 1.97854 1.44175 2.28012 1.17182 2.66896C0.90188 3.0578 0.708456 3.52275 0.6075 4.02546C0.33 5.38637 0 7.87364 0 12C0 16.1264 0.33 18.6136 0.6075 19.9745C0.708305 20.4775 0.901661 20.9427 1.17161 21.3318C1.44155 21.7209 1.78034 22.0227 2.16 22.2123C5.67857 23.94 11.1857 24 11.9293 24H12.0707C12.8143 24 18.3246 23.94 21.84 22.2123C22.2197 22.0227 22.5585 21.7209 22.8284 21.3318C23.0983 20.9427 23.2917 20.4775 23.3925 19.9745C23.67 18.6109 24 16.1264 24 12C24 7.87364 23.67 5.38637 23.3925 4.02546ZM15.4918 12.8891L11.2061 16.7073C11.0779 16.8216 10.9275 16.889 10.7713 16.9023C10.6152 16.9155 10.4591 16.8741 10.3201 16.7825C10.1811 16.6909 10.0645 16.5526 9.98287 16.3826C9.90125 16.2126 9.85777 16.0174 9.85714 15.8182V8.18182C9.85719 7.98226 9.90024 7.78653 9.98162 7.61595C10.063 7.44536 10.1796 7.30646 10.3187 7.21436C10.4578 7.12225 10.6141 7.08047 10.7705 7.09357C10.927 7.10667 11.0776 7.17414 11.2061 7.28864L15.4918 11.1068C15.6045 11.2074 15.6966 11.3411 15.7601 11.4966C15.8236 11.6521 15.8568 11.8248 15.8568 12C15.8568 12.1752 15.8236 12.3479 15.7601 12.5034C15.6966 12.6589 15.6045 12.7926 15.4918 12.8932V12.8891Z" fill="white"/>
</svg>
